<svg t="1540993292695" class="icon" style="" viewBox="0 0 1024 1024" version="1.1" xmlns="http://www.w3.org/2000/svg" p-id="2621" xmlns:xlink="http://www.w3.org/1999/xlink" width="200" height="200"><defs><style type="text/css"></style></defs><path d="M903.378 472.094c-25.234-45.3-73.09-73.44-124.896-73.44-50.332 0-98.346 27.93-125.3 72.888-5.682 9.478-2.604 21.77 6.878 27.454 9.478 5.678 21.774 2.604 27.458-6.874 19.762-32.966 54.618-53.44 90.966-53.44 37.296 0 71.754 20.266 89.928 52.886a20.004 20.004 0 0 0 27.226 7.748c9.654-5.378 13.12-17.566 7.74-27.222zM555.812 472.094c-25.234-45.3-73.09-73.44-124.896-73.44-50.332 0-98.344 27.93-125.298 72.886-5.684 9.482-2.608 21.774 6.874 27.458 9.482 5.678 21.774 2.604 27.458-6.874 19.762-32.966 54.618-53.44 90.966-53.44 37.296 0 71.756 20.266 89.928 52.886a20 20 0 0 0 27.226 7.748c9.652-5.38 13.122-17.568 7.742-27.224zM696.822 532.014c-11.054 0-20.014 8.958-20.014 20.014v105.958c-18.902-15.548-43.084-24.896-69.414-24.896-26.328 0-50.512 9.348-69.414 24.896v-105.958c0-11.056-8.962-20.014-20.014-20.014-11.054 0-20.014 8.958-20.014 20.014v317.566c0 11.056 8.962 20.014 20.014 20.014 11.054 0 20.014-8.958 20.014-20.014v-42.512c18.902 15.548 43.084 24.896 69.414 24.896 26.328 0 50.512-9.348 69.414-24.896v4.88c0 11.056 8.962 20.014 20.014 20.014 11.054 0 20.014-8.958 20.014-20.014V552.028c0-11.056-8.96-20.014-20.014-20.014z m-89.428 279.934c-38.276 0-69.414-31.138-69.414-69.414s31.14-69.416 69.414-69.416c38.276 0 69.414 31.14 69.414 69.416 0 38.278-31.138 69.414-69.414 69.414z" fill="" p-id="2622"></path><path d="M711.302 40.248c-10.186-4.302-21.926 0.458-26.232 10.634-4.304 10.18 0.456 21.926 10.638 26.23C870.82 151.18 983.972 321.884 983.972 512c0 111.928-39.188 214.862-104.532 295.854V552.03c0-11.056-8.962-20.014-20.014-20.014-11.054 0-20.014 8.958-20.014 20.014v299.574c-84.928 81.908-200.378 132.368-327.404 132.368-47.488 0-93.348-7.08-136.614-20.188V552.028c0-11.056-8.962-20.014-20.014-20.014-11.054 0-20.014 8.958-20.014 20.014v397.614C162.372 879.568 40.03 709.816 40.03 511.998 40.03 251.754 251.756 40.028 512 40.028c11.054 0 20.014-8.958 20.014-20.014S523.052 0 511.998 0C229.682 0 0 229.68 0 511.998c0 224.724 145.53 416.088 347.294 484.818a19.938 19.938 0 0 0 3.6 1.19c50.68 16.844 104.842 25.992 161.104 25.992 139.772 0 266.616-56.318 359.1-147.428a20.166 20.166 0 0 0 4.484-4.456C967.276 779.546 1024 652.28 1024 512.002c0-206.234-122.744-391.41-312.698-471.754z" fill="" p-id="2623"></path><path d="M696.83 898.712m-20.014 0a20.014 20.014 0 1 0 40.028 0 20.014 20.014 0 1 0-40.028 0Z" fill="" p-id="2624"></path><path d="M517.952 935.084m-20.014 0a20.014 20.014 0 1 0 40.028 0 20.014 20.014 0 1 0-40.028 0Z" fill="" p-id="2625"></path><path d="M631.182 35.768m-20.014 0a20.014 20.014 0 1 0 40.028 0 20.014 20.014 0 1 0-40.028 0Z" fill="" p-id="2626"></path></svg>